<svg width="265" height="52" viewBox="0 0 265 52" fill="none" xmlns="http://www.w3.org/2000/svg">
<path d="M55.4413 10.5826C51.0747 10.5826 47.5231 14.1342 47.5231 18.5008C47.5231 22.8674 51.076 26.419 55.4413 26.419C59.8067 26.419 63.3596 22.8662 63.3596 18.5008C63.3596 14.1354 59.8067 10.5826 55.4413 10.5826ZM55.4413 22.7066C53.1222 22.7066 51.2367 20.8199 51.2367 18.502C51.2367 16.1841 53.1234 14.2974 55.4413 14.2974C57.7592 14.2974 59.6459 16.1841 59.6459 18.502C59.6459 20.8199 57.7592 22.7066 55.4413 22.7066Z" fill="white"/>
<path d="M55.4414 4.90621C47.9444 4.90621 41.8456 11.005 41.8456 18.502C41.8456 25.999 47.9444 32.0978 55.4414 32.0978C62.9384 32.0978 69.0372 25.999 69.0372 18.502C69.0372 11.005 62.9384 4.90621 55.4414 4.90621ZM55.4414 28.4665C49.947 28.4665 45.4769 23.9964 45.4769 18.502C45.4769 13.0076 49.947 8.53758 55.4414 8.53758C60.9358 8.53758 65.4058 13.0076 65.4058 18.502C65.4058 23.9964 60.9358 28.4665 55.4414 28.4665Z" fill="white"/>
<path d="M55.663 16.3536C54.2997 16.2166 53.1569 17.3593 53.294 18.7226C53.395 19.732 54.2112 20.5483 55.2206 20.6492C56.5839 20.785 57.7254 19.6435 57.5896 18.2802C57.4887 17.2708 56.6724 16.4546 55.663 16.3536Z" fill="white"/>
<path d="M55.4413 0.0211945C45.2513 0.0211945 36.9604 8.31203 36.9604 18.502C36.9604 28.692 45.2513 36.9829 55.4413 36.9829C65.6313 36.9829 73.9221 28.692 73.9221 18.502C73.9221 8.31203 65.6313 0.0211945 55.4413 0.0211945ZM55.4413 34.1428C46.8165 34.1428 39.8005 27.1256 39.8005 18.502C39.8005 9.87847 46.8177 2.86124 55.4413 2.86124C64.0648 2.86124 71.0821 9.87847 71.0821 18.502C71.0821 27.1256 64.0648 34.1428 55.4413 34.1428Z" fill="white"/>
<path d="M18.5207 25.3049C14.2151 25.3049 10.7108 28.8079 10.7108 33.1147C10.7108 37.4215 14.2139 40.9245 18.5207 40.9245C22.8274 40.9245 26.3305 37.4215 26.3305 33.1147C26.3305 28.8079 22.8274 25.3049 18.5207 25.3049ZM18.5207 37.176C16.2813 37.176 14.4581 35.3541 14.4581 33.1135C14.4581 30.8729 16.28 29.0509 18.5207 29.0509C20.7613 29.0509 22.5832 30.8729 22.5832 33.1135C22.5832 35.3541 20.7613 37.176 18.5207 37.176Z" fill="white"/>
<path d="M23.3808 20.1183L21.6761 19.4641L23.1316 18.3625C25.7959 16.3461 26.8303 12.9777 25.766 9.78002C24.9211 7.2428 22.5646 4.52488 18.4834 4.50494C14.4196 4.52613 12.0618 7.23656 11.2144 9.76506C10.3645 12.2998 10.6025 15.885 13.8189 18.3413L15.2695 19.4491L13.5622 20.0946C8.23727 22.1097 4.65824 27.2863 4.64952 32.9789C5.03334 42.415 12.0668 46.7143 18.4435 46.7143C24.8202 46.7143 31.8524 42.4162 32.2374 32.9789C32.2287 27.3125 28.6721 22.1459 23.3808 20.1158V20.1183ZM14.8507 12.3422V12.2998C14.9492 9.93828 16.7624 8.70207 18.5045 8.70207C20.2455 8.70207 22.0586 9.93828 22.1571 12.2998V12.3422C22.1571 14.356 20.5196 15.996 18.5045 15.996C16.4895 15.996 14.8507 14.3572 14.8507 12.3422ZM18.522 42.9508C13.0974 42.9508 8.68465 38.5381 8.68465 33.1135C8.68465 27.6889 13.0974 23.2761 18.522 23.2761C23.9466 23.2761 28.3593 27.6889 28.3593 33.1135C28.3593 38.5381 23.9466 42.9508 18.522 42.9508Z" fill="white"/>
<path d="M18.7861 31.0972C17.4565 30.9277 16.3337 32.0505 16.5031 33.3802C16.6178 34.2861 17.3493 35.0176 18.2553 35.1323C19.5837 35.3018 20.7065 34.179 20.5383 32.8493C20.4236 31.9433 19.6921 31.2118 18.7861 31.0959V31.0972Z" fill="white"/>
<path d="M29.35 18.1618C30.3121 16.3773 30.8267 14.3647 30.8267 12.3197C30.8267 5.53802 25.3087 0.0211868 18.5269 0.0211868C11.7452 0.0211868 6.2284 5.53802 6.2284 12.321C6.2284 14.3448 6.73435 16.3412 7.67896 18.1132C2.89487 21.5626 0 27.1318 0 33.1085C0 43.2985 8.29083 51.5893 18.4808 51.5893C28.6708 51.5893 36.9617 43.2985 36.9617 33.1085C36.9617 27.1667 34.0917 21.6162 29.35 18.1618ZM34.2637 33.0412C34.0718 37.8826 32.2785 41.9514 29.0796 44.8051C26.2321 47.3448 22.4549 48.7443 18.4447 48.7443C14.4332 48.7443 10.6561 47.3448 7.80856 44.8039C4.60837 41.9501 2.81637 37.8826 2.62445 33.0412V33.0013C2.62445 29.7251 3.61641 26.581 5.49565 23.9104C7.01848 21.7458 9.02732 20.0174 11.3652 18.8497C8.94258 16.2701 8.12509 12.6088 9.29401 9.12203C10.6399 5.10809 14.2476 2.50108 18.4846 2.47865C22.7415 2.49984 26.3517 5.11432 27.6926 9.14073C28.8578 12.6412 28.0278 16.3063 25.589 18.8809C27.9107 20.0548 29.9046 21.7807 31.4149 23.9391C33.2805 26.6034 34.2674 29.7376 34.2674 33.0013V33.0412H34.2637Z" fill="white"/>
<path d="M18.507 13.9647C19.403 13.9647 20.1295 13.2382 20.1295 12.3422C20.1295 11.4462 19.403 10.7196 18.507 10.7196C17.611 10.7196 16.8844 11.4462 16.8844 12.3422C16.8844 13.2382 17.611 13.9647 18.507 13.9647Z" fill="white"/>
<path d="M83.8108 9.56692C84.8027 9.56692 85.5056 9.20802 85.9205 8.48897C86.3355 7.76993 86.581 6.81162 86.657 5.61279L86.9212 1.92161H91.2342V9.41862H93.4724V0H84.9747L84.6507 5.219C84.5921 6.06142 84.4662 6.61347 84.2718 6.87517C84.0774 7.13687 83.7896 7.26772 83.407 7.26772C83.2761 7.26772 83.1652 7.26149 83.073 7.25027C82.9808 7.23906 82.8799 7.21787 82.7727 7.18547V9.44978C82.8986 9.48592 83.0456 9.51458 83.2126 9.53452C83.3796 9.55446 83.5802 9.56443 83.8145 9.56443L83.8108 9.56692Z" fill="white"/>
<path d="M103.974 7.57178H97.3141V5.48942H103.216V3.77218H97.3141V1.89295H103.871V0H95.1781V9.41738H103.974V7.57178Z" fill="white"/>
<path d="M108.842 9.41738H111.114V1.92036H115.244V0H104.711V1.92036H108.842V9.41738Z" fill="white"/>
<path d="M87.0281 13.5584L81.9238 22.9958H84.3439L85.3819 20.967H90.9037L91.9368 22.9958H94.5264L89.3747 13.5584H87.0281ZM86.253 19.2647L87.7646 16.31C87.8543 16.1517 87.9254 16.0246 87.9777 15.9287C88.0301 15.8315 88.0849 15.7243 88.1435 15.6072H88.1634C88.222 15.7193 88.2768 15.8252 88.3291 15.9249C88.3815 16.0246 88.45 16.1542 88.5348 16.3175L90.0352 19.2647H86.2518H86.253Z" fill="white"/>
<path d="M99.424 22.9957V15.4987H103.554V13.5784H93.0211V15.4987H97.1522V22.9957H99.424Z" fill="white"/>
<path d="M110.438 13.3752C108.598 13.3752 107.061 13.7915 105.823 14.6227C104.586 15.4539 103.968 16.6539 103.968 18.2229C103.968 19.7918 104.586 21.0978 105.823 21.9377C107.061 22.7789 108.596 23.1989 110.43 23.1989C112.265 23.1989 113.816 22.7789 115.071 21.9377C116.326 21.0978 116.954 19.8591 116.954 18.2229C116.954 16.5866 116.327 15.4539 115.075 14.6227C113.822 13.7915 112.276 13.3752 110.437 13.3752H110.438ZM114.63 18.2839C114.63 19.307 114.235 20.0909 113.444 20.6367C112.652 21.1825 111.655 21.4505 110.451 21.4418C109.239 21.4368 108.246 21.1663 107.471 20.6268C106.695 20.0884 106.308 19.3046 106.308 18.2777V18.2104C106.308 17.2284 106.693 16.4757 107.464 15.9523C108.236 15.4289 109.231 15.1722 110.453 15.181C111.665 15.1859 112.665 15.4464 113.451 15.9623C114.237 16.4782 114.631 17.2297 114.631 18.2166V18.2839H114.63Z" fill="white"/>
<path d="M126.273 22.9957L130.133 17.2621C130.183 17.1861 130.223 17.1138 130.256 17.0452C130.287 16.9779 130.325 16.9032 130.37 16.8222H130.451C130.451 16.9082 130.439 16.9817 130.414 17.0452C130.389 17.1088 130.376 17.1823 130.376 17.2683L130.363 22.9945H132.573V13.5784H129.958L125.753 19.8317C125.676 19.9401 125.622 20.0199 125.591 20.0722C125.56 20.1245 125.53 20.1819 125.503 20.2442H125.489C125.458 20.1806 125.427 20.1233 125.398 20.0722C125.368 20.0199 125.316 19.9401 125.24 19.8317L120.974 13.5784H118.404V22.9957H120.459L120.439 17.1412C120.439 17.0465 120.428 16.9717 120.406 16.9144C120.383 16.8583 120.372 16.7786 120.372 16.6739H120.447C120.5 16.7773 120.54 16.8571 120.565 16.9106C120.59 16.9642 120.634 17.039 120.697 17.1337L124.734 22.9957H126.275H126.273Z" fill="white"/>
<path d="M137.32 19.1226H143.196V22.9957H145.44V13.5784H143.196V17.1275H137.32V13.5784H135.083V22.9957H137.32V19.1226Z" fill="white"/>
<path d="M148.805 21.9377C150.042 22.7789 151.578 23.1989 153.412 23.1989C155.247 23.1989 156.798 22.7789 158.053 21.9377C159.308 21.0978 159.936 19.8591 159.936 18.2229C159.936 16.5866 159.309 15.4539 158.057 14.6227C156.804 13.7915 155.258 13.3752 153.418 13.3752C151.579 13.3752 150.041 13.7915 148.804 14.6227C147.566 15.4539 146.948 16.6539 146.948 18.2229C146.948 19.7918 147.566 21.0978 148.804 21.9377H148.805ZM149.289 18.2092C149.289 17.2272 149.674 16.4745 150.445 15.9511C151.216 15.4277 152.212 15.171 153.433 15.1797C154.646 15.1847 155.645 15.4451 156.432 15.9611C157.218 16.477 157.612 17.2284 157.612 18.2154V18.2827C157.612 19.3058 157.217 20.0896 156.425 20.6355C155.634 21.1813 154.637 21.4492 153.433 21.4405C152.221 21.4355 151.228 21.1651 150.452 20.6255C149.677 20.0872 149.29 19.3033 149.29 18.2765V18.2092H149.289Z" fill="white"/>
<path d="M164.725 11.9932C165.207 12.2661 165.767 12.402 166.402 12.402C167.038 12.402 167.595 12.2661 168.072 11.997C168.549 11.7266 168.915 11.2742 169.167 10.6386L167.788 10.0031C167.643 10.3545 167.45 10.6125 167.206 10.777C166.963 10.9415 166.694 11.0237 166.401 11.0237C166.108 11.0237 165.844 10.939 165.596 10.7695C165.348 10.6 165.159 10.3445 165.028 10.0018L163.628 10.6374C163.876 11.268 164.241 11.7203 164.724 11.9932H164.725Z" fill="white"/>
<path d="M168.74 17.1686C168.876 17.0427 168.97 16.9318 169.024 16.8371C169.079 16.7424 169.123 16.6564 169.16 16.5804H169.201C169.21 16.6577 169.213 16.7449 169.208 16.8446C169.203 16.9443 169.201 17.0515 169.201 17.1686V22.9957H171.418V13.5784H168.876L164.062 19.3519C163.94 19.4778 163.855 19.5775 163.805 19.6497C163.756 19.722 163.708 19.803 163.663 19.8928H163.63V13.5784H161.399V22.9957H163.955L168.741 17.1686H168.74Z" fill="white"/>
<path d="M83.5477 36.5754H85.7784V29.0846H91.132V36.5754H93.3701V27.158H83.5477V36.5754Z" fill="white"/>
<path d="M105.07 28.0266C104.455 27.4471 103.511 27.158 102.242 27.158H96.1776V36.5754H98.4158V33.8986H102.215C103.523 33.8986 104.48 33.592 105.085 32.9789C105.691 32.3658 105.995 31.5458 105.995 30.5177C105.995 29.436 105.687 28.606 105.072 28.0266H105.07ZM103.296 31.7414C102.984 32.0206 102.482 32.1601 101.788 32.1601H98.4145V28.9762H101.788C102.482 28.9811 102.984 29.1132 103.296 29.3749C103.607 29.6366 103.762 30.0267 103.762 30.5451C103.762 31.0635 103.606 31.4623 103.296 31.7414Z" fill="white"/>
<path d="M117.671 28.2023C116.418 27.3711 114.872 26.9549 113.032 26.9549C111.193 26.9549 109.655 27.3711 108.418 28.2023C107.18 29.0335 106.562 30.2336 106.562 31.8025C106.562 33.3714 107.18 34.6774 108.418 35.5174C109.655 36.3585 111.19 36.7785 113.025 36.7785C114.859 36.7785 116.411 36.3585 117.666 35.5174C118.92 34.6774 119.549 33.4387 119.549 31.8025C119.549 30.1663 118.922 29.0335 117.669 28.2023H117.671ZM117.224 31.8636C117.224 32.8867 116.829 33.6705 116.038 34.2164C115.247 34.7622 114.25 35.0301 113.046 35.0214C111.833 35.0164 110.84 34.746 110.065 34.2064C109.29 33.668 108.902 32.8842 108.902 31.8573V31.79C108.902 30.8081 109.288 30.0554 110.059 29.532C110.83 29.0086 111.826 28.7519 113.047 28.7606C114.26 28.7656 115.259 29.026 116.046 29.5419C116.832 30.0579 117.226 30.8093 117.226 31.7963V31.8636H117.224Z" fill="white"/>
<path d="M128.346 33.4113C128.27 33.5197 128.215 33.5995 128.184 33.6518C128.153 33.7042 128.123 33.7615 128.096 33.8238H128.082C128.051 33.7603 128.02 33.7029 127.991 33.6518C127.961 33.5995 127.909 33.5197 127.833 33.4113L123.567 27.158H120.998V36.5754H123.053L123.033 30.7208C123.033 30.6261 123.021 30.5513 122.999 30.494C122.977 30.4379 122.965 30.3582 122.965 30.2535H123.04C123.094 30.3569 123.134 30.4367 123.158 30.4903C123.183 30.5439 123.227 30.6186 123.291 30.7133L127.327 36.5754H128.868L132.729 30.8417C132.779 30.7657 132.819 30.6934 132.851 30.6249C132.882 30.5576 132.921 30.4828 132.966 30.4018H133.047C133.047 30.4878 133.034 30.5613 133.01 30.6249C132.985 30.6884 132.972 30.7619 132.972 30.8479L132.958 36.5741H135.169V27.1568H132.553L128.348 33.4101L128.346 33.4113Z" fill="white"/>
<path d="M149.828 27.1505H147.543V36.5679H149.828V27.1505Z" fill="white"/>
<path d="M142.904 29.9432H139.517V27.158H137.287V36.5754H142.938C144.156 36.5754 145.053 36.2912 145.632 35.723C146.212 35.1547 146.501 34.3397 146.501 33.2755C146.501 32.2112 146.214 31.4585 145.642 30.8517C145.07 30.246 144.157 29.9419 142.904 29.9419V29.9432ZM143.862 34.4082C143.589 34.645 143.152 34.7634 142.553 34.7634H139.517V31.7688H142.559C143.154 31.7688 143.587 31.9047 143.86 32.1738C144.133 32.4443 144.269 32.8119 144.269 33.2755C144.269 33.7939 144.133 34.1715 143.86 34.4082H143.862Z" fill="white"/>
<path d="M164.303 34.6488H160.692V27.158H158.448V34.6488H154.832V27.158H152.601V36.5754H166.541V27.158H164.303V34.6488Z" fill="white"/>
<path d="M170.173 32.377C170.115 33.2194 169.989 33.7715 169.794 34.0332C169.6 34.2949 169.312 34.4257 168.929 34.4257C168.799 34.4257 168.688 34.4195 168.595 34.4083C168.503 34.3971 168.402 34.3759 168.295 34.3435V36.6078C168.421 36.6439 168.568 36.6726 168.735 36.6925C168.902 36.7125 169.103 36.7224 169.337 36.7224C170.329 36.7224 171.032 36.3635 171.447 35.6445C171.862 34.9254 172.107 33.9671 172.183 32.7683L172.447 29.0771H176.76V36.5741H178.999V27.1568H170.501L170.177 32.3758L170.173 32.377Z" fill="white"/>
<path d="M183.946 32.6474H189.848V30.9302H183.946V29.0509H190.503V27.158H181.809V36.5754H190.604V34.7298H183.946V32.6474Z" fill="white"/>
<path d="M200.551 30.7071H194.676V27.158H192.439V36.5754H194.676V32.701H200.551V36.5754H202.796V27.158H200.551V30.7071Z" fill="white"/>
<path d="M213.276 30.7071H207.4V27.158H205.163V36.5754H207.4V32.701H213.276V36.5754H215.52V27.158H213.276V30.7071Z" fill="white"/>
<path d="M228.137 28.2023C226.884 27.3711 225.338 26.9549 223.498 26.9549C221.659 26.9549 220.121 27.3711 218.884 28.2023C217.646 29.0335 217.028 30.2336 217.028 31.8025C217.028 33.3714 217.646 34.6774 218.884 35.5174C220.121 36.3585 221.657 36.7785 223.491 36.7785C225.325 36.7785 226.877 36.3585 228.132 35.5174C229.387 34.6774 230.015 33.4387 230.015 31.8025C230.015 30.1663 229.388 29.0335 228.136 28.2023H228.137ZM227.691 31.8636C227.691 32.8867 227.296 33.6705 226.504 34.2164C225.713 34.7622 224.716 35.0301 223.512 35.0214C222.3 35.0164 221.306 34.746 220.531 34.2064C219.756 33.668 219.369 32.8842 219.369 31.8573V31.79C219.369 30.8081 219.754 30.0554 220.525 29.532C221.296 29.0086 222.292 28.7519 223.513 28.7606C224.726 28.7656 225.725 29.026 226.512 29.5419C227.298 30.0579 227.692 30.8093 227.692 31.7963V31.8636H227.691Z" fill="white"/>
<path d="M234.071 29.6254C234.794 29.0347 235.81 28.7394 237.117 28.7394C238.216 28.7394 239.03 28.9325 239.557 29.3176C240.084 29.7027 240.471 30.1389 240.719 30.6261L240.759 30.8292H243.017L242.984 30.5788C242.624 29.2989 242.003 28.3743 241.124 27.8073C240.246 27.239 238.896 26.9549 237.074 26.9549C235.252 26.9549 233.632 27.3649 232.426 28.1848C231.22 29.0048 230.618 30.2248 230.618 31.8424V31.8897C230.618 33.4848 231.219 34.6986 232.42 35.5298C233.621 36.361 235.175 36.7772 237.082 36.7772C238.989 36.7772 240.392 36.4881 241.361 35.9087C242.331 35.3292 242.875 34.4182 242.997 33.1745L243.017 32.9315H240.773L240.746 33.1546C240.656 33.6282 240.337 34.0556 239.789 34.4394C239.242 34.822 238.352 35.0139 237.122 35.0139C235.892 35.0139 234.838 34.7746 234.096 34.2974C233.355 33.8201 232.983 33.0213 232.983 31.9047V31.8162C232.983 30.9464 233.345 30.2161 234.069 29.6254H234.071Z" fill="white"/>
<path d="M243.176 29.0771H247.307V36.5754H249.578V29.0771H253.708V27.158H243.176V29.0771Z" fill="white"/>
<path d="M262.458 27.158L257.644 32.9315C257.522 33.0574 257.437 33.1571 257.387 33.2294C257.337 33.3016 257.29 33.3826 257.245 33.4724H257.211V27.158H254.981V36.5754H257.537L262.323 30.7482C262.459 30.6224 262.552 30.5114 262.607 30.4167C262.661 30.322 262.706 30.236 262.743 30.16H262.783C262.792 30.2373 262.794 30.3245 262.789 30.4242C262.784 30.5239 262.783 30.6311 262.783 30.7482V36.5754H265.001V27.158H262.459H262.458Z" fill="white"/>
</svg>
