<svg width="262" height="51" viewBox="0 0 262 51" fill="none" xmlns="http://www.w3.org/2000/svg">
<g clip-path="url(#clip0_156_16032)">
<path d="M54.8134 10.4628C50.4963 10.4628 46.9849 13.9742 46.9849 18.2914C46.9849 22.6085 50.4975 26.1199 54.8134 26.1199C59.1294 26.1199 62.642 22.6073 62.642 18.2914C62.642 13.9754 59.1294 10.4628 54.8134 10.4628ZM54.8134 22.4496C52.5206 22.4496 50.6564 20.5842 50.6564 18.2926C50.6564 16.0009 52.5218 14.1356 54.8134 14.1356C57.1051 14.1356 58.9705 16.0009 58.9705 18.2926C58.9705 20.5842 57.1051 22.4496 54.8134 22.4496Z" fill="#004EA8"/>
<path d="M54.8135 4.85071C47.4013 4.85071 41.3716 10.8805 41.3716 18.2926C41.3716 25.7048 47.4013 31.7345 54.8135 31.7345C62.2256 31.7345 68.2554 25.7048 68.2554 18.2926C68.2554 10.8805 62.2256 4.85071 54.8135 4.85071ZM54.8135 28.1443C49.3813 28.1443 44.9618 23.7248 44.9618 18.2926C44.9618 12.8604 49.3813 8.44096 54.8135 8.44096C60.2457 8.44096 64.6651 12.8604 64.6651 18.2926C64.6651 23.7248 60.2457 28.1443 54.8135 28.1443Z" fill="#004EA8"/>
<path d="M55.0329 16.1685C53.685 16.033 52.5552 17.1628 52.6907 18.5107C52.7905 19.5087 53.5975 20.3157 54.5955 20.4155C55.9434 20.5498 57.072 19.4212 56.9377 18.0733C56.8379 17.0753 56.0309 16.2683 55.0329 16.1685Z" fill="#004EA8"/>
<path d="M54.8136 0.0209961C44.739 0.0209961 36.542 8.21797 36.542 18.2926C36.542 28.3673 44.739 36.5642 54.8136 36.5642C64.8883 36.5642 73.0852 28.3673 73.0852 18.2926C73.0852 8.21797 64.8883 0.0209961 54.8136 0.0209961ZM54.8136 33.7563C46.2864 33.7563 39.3499 26.8186 39.3499 18.2926C39.3499 9.76668 46.2877 2.82889 54.8136 2.82889C63.3395 2.82889 70.2773 9.76668 70.2773 18.2926C70.2773 26.8186 63.3395 33.7563 54.8136 33.7563Z" fill="#004EA8"/>
<path d="M18.3112 25.0186C14.0544 25.0186 10.5898 28.4819 10.5898 32.7399C10.5898 36.998 14.0532 40.4613 18.3112 40.4613C22.5693 40.4613 26.0326 36.998 26.0326 32.7399C26.0326 28.4819 22.5693 25.0186 18.3112 25.0186ZM18.3112 36.7553C16.0972 36.7553 14.2947 34.954 14.2947 32.7387C14.2947 30.5235 16.096 28.7222 18.3112 28.7222C20.5265 28.7222 22.3278 30.5235 22.3278 32.7387C22.3278 34.954 20.5265 36.7553 18.3112 36.7553Z" fill="#004EA8"/>
<path d="M23.1159 19.8906L21.4305 19.2438L22.8695 18.1546C25.5037 16.1611 26.5263 12.8308 25.4741 9.66934C24.6388 7.16084 22.3089 4.47369 18.2739 4.45398C14.2561 4.47492 11.925 7.15468 11.0872 9.65455C10.247 12.1606 10.4823 15.7053 13.6623 18.1337L15.0964 19.229L13.4085 19.8672C8.14381 21.8595 4.6053 26.9775 4.59668 32.6056C4.97616 41.9348 11.93 46.1855 18.2345 46.1855C24.539 46.1855 31.4916 41.9361 31.8723 32.6056C31.8637 27.0034 28.3473 21.8952 23.1159 19.8881V19.8906ZM14.6824 12.2025V12.1606C14.7797 9.82581 16.5724 8.6036 18.2949 8.6036C20.0161 8.6036 21.8087 9.82581 21.9061 12.1606V12.2025C21.9061 14.1935 20.2871 15.8149 18.2949 15.8149C16.3026 15.8149 14.6824 14.1947 14.6824 12.2025ZM18.3121 42.4646C12.9489 42.4646 8.58613 38.1019 8.58613 32.7386C8.58613 27.3754 12.9489 23.0127 18.3121 23.0127C23.6753 23.0127 28.0381 27.3754 28.0381 32.7386C28.0381 38.1019 23.6753 42.4646 18.3121 42.4646Z" fill="#004EA8"/>
<path d="M18.5733 30.7452C17.2586 30.5776 16.1486 31.6877 16.3161 33.0023C16.4295 33.8981 17.1527 34.6213 18.0484 34.7346C19.3618 34.9022 20.4719 33.7921 20.3056 32.4775C20.1922 31.5818 19.469 30.8585 18.5733 30.744V30.7452Z" fill="#004EA8"/>
<path d="M29.0177 17.9561C29.9689 16.1918 30.4778 14.202 30.4778 12.1802C30.4778 5.47526 25.0221 0.020874 18.3172 0.020874C11.6123 0.020874 6.15789 5.47526 6.15789 12.1814C6.15789 14.1823 6.65811 16.1561 7.59202 17.9081C2.8621 21.3185 0 26.8246 0 32.7336C0 42.8083 8.19697 51.0052 18.2716 51.0052C28.3463 51.0052 36.5432 42.8083 36.5432 32.7336C36.5432 26.8591 33.7058 21.3714 29.0177 17.9561ZM33.8758 32.6671C33.6861 37.4537 31.9131 41.4764 28.7504 44.2978C25.9351 46.8088 22.2007 48.1924 18.2359 48.1924C14.2699 48.1924 10.5354 46.8088 7.72016 44.2966C4.5562 41.4752 2.78448 37.4537 2.59474 32.6671V32.6276C2.59474 29.3885 3.57547 26.28 5.43343 23.6397C6.93903 21.4996 8.92513 19.7907 11.2365 18.6362C8.84134 16.0859 8.03311 12.466 9.18879 9.01869C10.5194 5.05019 14.0863 2.4727 18.2753 2.45052C22.4841 2.47146 26.0534 5.05635 27.3791 9.03717C28.5311 12.4981 27.7105 16.1216 25.2994 18.667C27.5947 19.8277 29.566 21.5341 31.0593 23.668C32.9037 26.3022 33.8795 29.4009 33.8795 32.6276V32.6671H33.8758Z" fill="#004EA8"/>
<path d="M18.2975 13.8067C19.1834 13.8067 19.9017 13.0884 19.9017 12.2025C19.9017 11.3167 19.1834 10.5984 18.2975 10.5984C17.4117 10.5984 16.6934 11.3167 16.6934 12.2025C16.6934 13.0884 17.4117 13.8067 18.2975 13.8067Z" fill="#004EA8"/>
<path d="M82.8618 9.45861C83.8425 9.45861 84.5374 9.10378 84.9477 8.39287C85.3579 7.68197 85.6007 6.7345 85.6758 5.54925L85.937 1.89985H90.2012V9.312H92.414V0H84.0125L83.6922 5.15992C83.6343 5.9928 83.5098 6.5386 83.3176 6.79734C83.1254 7.05607 82.8408 7.18544 82.4626 7.18544C82.3332 7.18544 82.2235 7.17928 82.1324 7.16819C82.0412 7.1571 81.9414 7.13616 81.8354 7.10412V9.3428C81.9599 9.37853 82.1053 9.40687 82.2704 9.42658C82.4355 9.44629 82.6338 9.45615 82.8655 9.45615L82.8618 9.45861Z" fill="#004EA8"/>
<path d="M102.797 7.48607H96.2128V5.42728H102.048V3.72948H96.2128V1.87152H102.696V0H94.1011V9.31076H102.797V7.48607Z" fill="#004EA8"/>
<path d="M107.611 9.31076H109.857V1.89862H113.94V0H103.526V1.89862H107.611V9.31076Z" fill="#004EA8"/>
<path d="M86.0431 13.4049L80.9966 22.7354H83.3893L84.4156 20.7296H89.8749L90.8963 22.7354H93.4565L88.3631 13.4049H86.0431ZM85.2768 19.0466L86.7713 16.1253C86.86 15.9688 86.9302 15.8432 86.982 15.7483C87.0337 15.6522 87.0879 15.5462 87.1458 15.4304H87.1656C87.2235 15.5413 87.2777 15.646 87.3294 15.7446C87.3812 15.8432 87.4489 15.9713 87.5327 16.1327L89.0161 19.0466H85.2756H85.2768Z" fill="#004EA8"/>
<path d="M98.2986 22.7354V15.3233H102.382V13.4247H91.9683V15.3233H96.0526V22.7354H98.2986Z" fill="#004EA8"/>
<path d="M109.187 13.2239C107.369 13.2239 105.849 13.6354 104.625 14.4572C103.402 15.279 102.791 16.4655 102.791 18.0166C102.791 19.5678 103.402 20.859 104.625 21.6894C105.849 22.5211 107.366 22.9363 109.18 22.9363C110.994 22.9363 112.528 22.5211 113.768 21.6894C115.009 20.859 115.63 19.6343 115.63 18.0166C115.63 16.3989 115.01 15.279 113.772 14.4572C112.534 13.6354 111.005 13.2239 109.186 13.2239H109.187ZM113.332 18.077C113.332 19.0885 112.942 19.8635 112.159 20.4032C111.377 20.9428 110.391 21.2077 109.201 21.1991C108.002 21.1941 107.02 20.9268 106.254 20.3933C105.488 19.861 105.104 19.0861 105.104 18.0708V18.0043C105.104 17.0334 105.485 16.2893 106.248 15.7718C107.01 15.2543 107.995 15.0005 109.202 15.0091C110.401 15.0141 111.389 15.2716 112.167 15.7817C112.944 16.2917 113.333 17.0347 113.333 18.0105V18.077H113.332Z" fill="#004EA8"/>
<path d="M124.844 22.7354L128.661 17.0667C128.71 16.9915 128.749 16.9201 128.781 16.8523C128.812 16.7858 128.85 16.7119 128.895 16.6318H128.975C128.975 16.7168 128.963 16.7895 128.938 16.8523C128.913 16.9151 128.901 16.9878 128.901 17.0728L128.887 22.7342H131.073V13.4247H128.487L124.33 19.6072C124.254 19.7144 124.201 19.7933 124.17 19.845C124.139 19.8968 124.109 19.9534 124.082 20.015H124.069C124.038 19.9522 124.007 19.8955 123.979 19.845C123.949 19.7933 123.898 19.7144 123.822 19.6072L119.605 13.4247H117.064V22.7354H119.096L119.076 16.9472C119.076 16.8535 119.065 16.7796 119.043 16.7229C119.021 16.6675 119.01 16.5886 119.01 16.4851H119.084C119.137 16.5874 119.176 16.6663 119.201 16.7192C119.226 16.7722 119.269 16.8461 119.331 16.9398L123.322 22.7354H124.846H124.844Z" fill="#004EA8"/>
<path d="M135.766 18.9062H141.575V22.7354H143.794V13.4247H141.575V16.9336H135.766V13.4247H133.554V22.7354H135.766V18.9062Z" fill="#004EA8"/>
<path d="M147.12 21.6894C148.344 22.5211 149.862 22.9363 151.675 22.9363C153.489 22.9363 155.023 22.5211 156.264 21.6894C157.504 20.859 158.125 19.6343 158.125 18.0166C158.125 16.3989 157.506 15.279 156.267 14.4572C155.029 13.6354 153.5 13.2239 151.682 13.2239C149.863 13.2239 148.343 13.6354 147.119 14.4572C145.896 15.279 145.285 16.4655 145.285 18.0166C145.285 19.5678 145.896 20.859 147.119 21.6894H147.12ZM147.599 18.0031C147.599 17.0322 147.979 16.288 148.742 15.7706C149.505 15.2531 150.489 14.9993 151.696 15.0079C152.895 15.0128 153.883 15.2703 154.661 15.7804C155.438 16.2905 155.828 17.0334 155.828 18.0092V18.0758C155.828 19.0873 155.437 19.8623 154.655 20.4019C153.872 20.9416 152.887 21.2065 151.696 21.1978C150.498 21.1929 149.516 20.9256 148.749 20.3921C147.983 19.8598 147.6 19.0848 147.6 18.0696V18.0031H147.599Z" fill="#004EA8"/>
<path d="M162.86 11.8574C163.337 12.1272 163.89 12.2615 164.518 12.2615C165.147 12.2615 165.698 12.1272 166.169 11.8611C166.641 11.5937 167.002 11.1465 167.252 10.5181L165.889 9.88978C165.746 10.2372 165.555 10.4923 165.313 10.6549C165.073 10.8175 164.807 10.8988 164.517 10.8988C164.228 10.8988 163.966 10.8151 163.721 10.6475C163.476 10.4799 163.289 10.2274 163.159 9.88855L161.776 10.5169C162.021 11.1403 162.382 11.5876 162.859 11.8574H162.86Z" fill="#004EA8"/>
<path d="M166.83 16.9743C166.964 16.8498 167.057 16.7402 167.111 16.6465C167.165 16.5529 167.208 16.4679 167.245 16.3927H167.286C167.294 16.4691 167.297 16.5554 167.292 16.6539C167.287 16.7525 167.286 16.8585 167.286 16.9743V22.7354H169.478V13.4247H166.964L162.205 19.1329C162.084 19.2573 162 19.3559 161.951 19.4273C161.902 19.4988 161.855 19.5789 161.81 19.6676H161.777V13.4247H159.572V22.7354H162.099L166.831 16.9743H166.83Z" fill="#004EA8"/>
<path d="M82.6021 36.1614H84.8075V28.7554H90.1004V36.1614H92.3132V26.8506H82.6021V36.1614Z" fill="#004EA8"/>
<path d="M103.881 27.7093C103.272 27.1364 102.34 26.8506 101.084 26.8506H95.0889V36.1614H97.3017V33.5149H101.058C102.351 33.5149 103.297 33.2118 103.896 32.6056C104.494 31.9994 104.795 31.1887 104.795 30.1723C104.795 29.1028 104.491 28.2823 103.882 27.7093H103.881ZM102.126 31.3821C101.818 31.6581 101.322 31.7961 100.636 31.7961H97.3004V28.6482H100.636C101.322 28.6531 101.818 28.7837 102.126 29.0424C102.434 29.3012 102.587 29.6868 102.587 30.1994C102.587 30.7119 102.433 31.1062 102.126 31.3821Z" fill="#004EA8"/>
<path d="M116.339 27.883C115.1 27.0612 113.571 26.6497 111.753 26.6497C109.934 26.6497 108.414 27.0612 107.191 27.883C105.967 28.7048 105.356 29.8912 105.356 31.4424C105.356 32.9936 105.967 34.2848 107.191 35.1152C108.414 35.9469 109.932 36.3621 111.745 36.3621C113.559 36.3621 115.093 35.9469 116.334 35.1152C117.574 34.2848 118.195 33.0601 118.195 31.4424C118.195 29.8247 117.576 28.7048 116.337 27.883H116.339ZM115.898 31.5028C115.898 32.5143 115.507 33.2893 114.725 33.8289C113.942 34.3686 112.957 34.6335 111.766 34.6249C110.568 34.6199 109.586 34.3526 108.819 33.8191C108.053 33.2868 107.67 32.5119 107.67 31.4966V31.4301C107.67 30.4592 108.05 29.7151 108.813 29.1976C109.576 28.6801 110.56 28.4263 111.768 28.4349C112.966 28.4399 113.955 28.6974 114.732 29.2074C115.509 29.7175 115.899 30.4605 115.899 31.4363V31.5028H115.898Z" fill="#004EA8"/>
<path d="M126.894 33.0331C126.819 33.1403 126.765 33.2192 126.734 33.2709C126.703 33.3227 126.673 33.3793 126.646 33.4409H126.633C126.602 33.3781 126.571 33.3214 126.543 33.2709C126.513 33.2192 126.461 33.1403 126.386 33.0331L122.169 26.8506H119.628V36.1614H121.66L121.64 30.3731C121.64 30.2795 121.629 30.2055 121.607 30.1489C121.585 30.0934 121.574 30.0146 121.574 29.9111H121.648C121.701 30.0133 121.74 30.0922 121.765 30.1452C121.789 30.1981 121.833 30.2721 121.895 30.3657L125.886 36.1614H127.41L131.227 30.4926C131.276 30.4174 131.316 30.346 131.348 30.2782C131.379 30.2117 131.417 30.1378 131.461 30.0577H131.541C131.541 30.1427 131.529 30.2154 131.504 30.2782C131.48 30.3411 131.467 30.4137 131.467 30.4988L131.454 36.1601H133.64V26.8494H131.053L126.895 33.0319L126.894 33.0331Z" fill="#004EA8"/>
<path d="M148.132 26.8431H145.873V36.1539H148.132V26.8431Z" fill="#004EA8"/>
<path d="M141.287 29.6043H137.938V26.8506H135.732V36.1614H141.32C142.524 36.1614 143.411 35.8804 143.984 35.3186C144.557 34.7568 144.842 33.951 144.842 32.8988C144.842 31.8466 144.559 31.1025 143.993 30.5024C143.428 29.9037 142.525 29.603 141.287 29.603V29.6043ZM142.233 34.0188C141.963 34.2529 141.532 34.3699 140.939 34.3699H137.938V31.4093H140.945C141.533 31.4093 141.962 31.5435 142.232 31.8097C142.501 32.077 142.636 32.4405 142.636 32.8988C142.636 33.4114 142.501 33.7847 142.232 34.0188H142.233Z" fill="#004EA8"/>
<path d="M162.443 34.2566H158.873V26.8506H156.654V34.2566H153.079V26.8506H150.874V36.1614H164.655V26.8506H162.443V34.2566Z" fill="#004EA8"/>
<path d="M168.247 32.0105C168.189 32.8434 168.065 33.3892 167.872 33.6479C167.68 33.9067 167.396 34.036 167.017 34.036C166.888 34.036 166.778 34.0299 166.687 34.0188C166.596 34.0077 166.496 33.9868 166.39 33.9547V36.1934C166.515 36.2291 166.66 36.2575 166.825 36.2772C166.99 36.2969 167.189 36.3067 167.42 36.3067C168.401 36.3067 169.096 35.9519 169.506 35.241C169.916 34.5301 170.159 33.5826 170.234 32.3974L170.495 28.748H174.76V36.1601H176.972V26.8494H168.571L168.251 32.0093L168.247 32.0105Z" fill="#004EA8"/>
<path d="M181.864 32.2779H187.699V30.5801H181.864V28.7221H188.347V26.8506H179.751V36.1614H188.447V34.3367H181.864V32.2779Z" fill="#004EA8"/>
<path d="M198.281 30.3595H192.472V26.8506H190.26V36.1614H192.472V32.3308H198.281V36.1614H200.5V26.8506H198.281V30.3595Z" fill="#004EA8"/>
<path d="M210.862 30.3595H205.052V26.8506H202.841V36.1614H205.052V32.3308H210.862V36.1614H213.081V26.8506H210.862V30.3595Z" fill="#004EA8"/>
<path d="M225.554 27.883C224.316 27.0612 222.787 26.6497 220.969 26.6497C219.15 26.6497 217.63 27.0612 216.406 27.883C215.183 28.7048 214.572 29.8912 214.572 31.4424C214.572 32.9936 215.183 34.2848 216.406 35.1152C217.63 35.9469 219.148 36.3621 220.961 36.3621C222.775 36.3621 224.309 35.9469 225.55 35.1152C226.79 34.2848 227.411 33.0601 227.411 31.4424C227.411 29.8247 226.791 28.7048 225.553 27.883H225.554ZM225.113 31.5028C225.113 32.5143 224.723 33.2893 223.94 33.8289C223.158 34.3686 222.172 34.6335 220.982 34.6249C219.783 34.6199 218.801 34.3526 218.035 33.8191C217.269 33.2868 216.886 32.5119 216.886 31.4966V31.4301C216.886 30.4592 217.266 29.7151 218.029 29.1976C218.792 28.6801 219.776 28.4263 220.983 28.4349C222.182 28.4399 223.17 28.6974 223.948 29.2074C224.725 29.7175 225.115 30.4605 225.115 31.4363V31.5028H225.113Z" fill="#004EA8"/>
<path d="M231.421 29.29C232.136 28.706 233.14 28.414 234.433 28.414C235.519 28.414 236.324 28.605 236.845 28.9857C237.366 29.3664 237.749 29.7976 237.995 30.2793L238.034 30.4802H240.266L240.233 30.2325C239.877 28.9672 239.264 28.053 238.395 27.4924C237.526 26.9306 236.192 26.6497 234.391 26.6497C232.589 26.6497 230.988 27.055 229.795 27.8657C228.602 28.6764 228.007 29.8826 228.007 31.4818V31.5287C228.007 33.1057 228.601 34.3057 229.789 35.1275C230.977 35.9493 232.513 36.3608 234.398 36.3608C236.283 36.3608 237.67 36.075 238.629 35.5021C239.588 34.9292 240.126 34.0285 240.247 32.7989L240.266 32.5587H238.047L238.02 32.7792C237.932 33.2474 237.616 33.67 237.074 34.0495C236.533 34.4277 235.654 34.6175 234.438 34.6175C233.221 34.6175 232.179 34.3809 231.446 33.909C230.713 33.4371 230.346 32.6474 230.346 31.5434V31.456C230.346 30.596 230.703 29.874 231.419 29.29H231.421Z" fill="#004EA8"/>
<path d="M240.423 28.748H244.507V36.1614H246.753V28.748H250.836V26.8506H240.423V28.748Z" fill="#004EA8"/>
<path d="M259.487 26.8506L254.727 32.5588C254.606 32.6832 254.523 32.7818 254.473 32.8532C254.424 32.9247 254.377 33.0048 254.333 33.0935H254.3V26.8506H252.094V36.1614H254.621L259.354 30.4002C259.488 30.2757 259.58 30.1661 259.635 30.0725C259.688 29.9788 259.732 29.8938 259.769 29.8186H259.808C259.817 29.895 259.819 29.9813 259.814 30.0798C259.809 30.1784 259.808 30.2844 259.808 30.4002V36.1614H262.001V26.8506H259.488H259.487Z" fill="#004EA8"/>
</g>
<defs>
<clipPath id="clip0_156_16032">
<rect width="262" height="51.0053" fill="white"/>
</clipPath>
</defs>
</svg>
