<svg width="113" height="51" viewBox="0 0 113 51" fill="none" xmlns="http://www.w3.org/2000/svg">
<g clip-path="url(#clip0_146_7153)">
<path d="M42.9753 8.79193C39.7807 8.79193 37.1816 11.4616 37.1816 14.7421C37.1816 18.0225 39.7807 20.6932 42.9753 20.6932C46.1699 20.6932 48.768 18.0235 48.768 14.7421C48.768 11.4606 46.1689 8.79193 42.9753 8.79193ZM42.9753 18.502C40.9572 18.502 39.3149 16.815 39.3149 14.7421C39.3149 12.6692 40.9572 10.9822 42.9753 10.9822C44.9933 10.9822 46.6357 12.6692 46.6357 14.7421C46.6357 16.815 44.9933 18.502 42.9753 18.502Z" fill="white"/>
<path d="M42.9755 13.4291C42.2705 13.4291 41.6973 14.018 41.6973 14.7421C41.6973 15.4662 42.2705 16.0551 42.9755 16.0551C43.6805 16.0551 44.2537 15.4662 44.2537 14.7421C44.2537 14.018 43.6805 13.4291 42.9755 13.4291Z" fill="white"/>
<path d="M42.9751 0.0109406C35.0675 0.0109406 28.6338 6.61957 28.6338 14.7421C28.6338 22.8646 35.0675 29.4732 42.9751 29.4732C50.8827 29.4732 57.3164 22.8646 57.3164 14.7421C57.3164 6.61957 50.8827 0.0109406 42.9751 0.0109406ZM42.9751 27.7137C36.0117 27.7137 30.3468 21.8948 30.3468 14.7421C30.3468 7.58937 36.0117 1.77152 42.9741 1.77152C49.9366 1.77152 55.6024 7.59037 55.6024 14.7431C55.6024 21.8958 49.9375 27.7146 42.9741 27.7146L42.9751 27.7137Z" fill="white"/>
<path d="M42.9747 4.21742C37.3243 4.21742 32.7285 8.93915 32.7285 14.7421C32.7285 20.545 37.3253 25.2667 42.9747 25.2667C48.624 25.2667 53.2208 20.545 53.2208 14.7421C53.2208 8.93915 48.624 4.21742 42.9747 4.21742ZM42.9747 23.1391C38.467 23.1391 34.7998 19.3723 34.7998 14.7421C34.7998 10.1119 38.467 6.34503 42.9747 6.34503C47.4823 6.34503 51.1495 10.1119 51.1495 14.7421C51.1495 19.3723 47.4823 23.1391 42.9747 23.1391Z" fill="white"/>
<path d="M15.1875 9.71797C15.1875 9.2276 14.7992 8.82874 14.3218 8.82874C13.8444 8.82874 13.4561 9.2276 13.4561 9.71797C13.4561 10.2083 13.8444 10.6072 14.3218 10.6072C14.7992 10.6072 15.1875 10.2083 15.1875 9.71797Z" fill="white"/>
<path d="M17.988 16.3574L16.0087 15.5776L17.6995 14.2637C19.1074 13.1695 19.9151 11.5044 19.9151 9.69511C19.9151 6.53801 17.4148 3.96976 14.3412 3.96976C11.2677 3.96976 8.76737 6.53801 8.76737 9.69511C8.76737 11.4945 9.5682 13.1546 10.9636 14.2487L12.6495 15.5697L10.6663 16.3405C6.69123 17.8863 4.02051 21.858 4.02051 26.2246C4.02051 32.0504 8.63471 36.7901 14.3064 36.7901C19.978 36.7901 24.5922 32.0504 24.5922 26.2246C24.5922 21.8789 21.9379 17.9131 17.988 16.3565V16.3574ZM11.1011 9.71799C11.1011 7.89375 12.5459 6.4097 14.3218 6.4097C16.0978 6.4097 17.5426 7.89375 17.5426 9.71799C17.5426 11.5422 16.0978 13.0263 14.3218 13.0263C12.5459 13.0263 11.1011 11.5422 11.1011 9.71799ZM14.3044 34.4466C9.90325 34.4466 6.32228 30.7683 6.32228 26.2475C6.32228 21.7267 9.90325 18.0484 14.3044 18.0484C18.7056 18.0484 22.2865 21.7267 22.2865 26.2475C22.2865 30.7683 18.7056 34.4466 14.3044 34.4466Z" fill="white"/>
<path d="M14.3048 20.4664C11.2013 20.4664 8.67676 23.0596 8.67676 26.2475C8.67676 29.4354 11.2013 32.0286 14.3048 32.0286C17.4084 32.0286 19.9329 29.4354 19.9329 26.2475C19.9329 23.0596 17.4084 20.4664 14.3048 20.4664ZM14.3048 29.8711C12.3594 29.8711 10.7761 28.2448 10.7761 26.2465C10.7761 24.2482 12.3594 22.6219 14.3048 22.6219C16.2502 22.6219 17.8335 24.2482 17.8335 26.2465C17.8335 28.2448 16.2502 29.8711 14.3048 29.8711Z" fill="white"/>
<path d="M22.7205 14.4258C23.4651 13.0064 23.8641 11.4059 23.8641 9.78065C23.8641 4.38751 19.5927 0 14.3432 0C9.0938 0 4.82143 4.38751 4.82143 9.78065C4.82143 11.39 5.21361 12.9775 5.94472 14.387C2.24174 17.1303 0 21.5586 0 26.3112C0 34.4138 6.41824 41.0065 14.3064 41.0065C22.1946 41.0065 28.6129 34.4138 28.6129 26.3112C28.6129 21.5864 26.3915 17.1731 22.7205 14.4258ZM14.3064 39.2091C7.33624 39.2091 1.66557 33.3843 1.66557 26.2246C1.66557 23.536 2.45865 20.9558 3.95959 18.7636C5.07804 17.1303 6.52379 15.8004 8.20098 14.8515C7.04864 13.4132 6.41146 11.6089 6.41146 9.69411C6.41146 5.20315 9.96822 1.5497 14.3403 1.5497C18.7125 1.5497 22.2692 5.20315 22.2692 9.69411C22.2692 11.6238 21.6243 13.4371 20.4584 14.8794C22.123 15.8313 23.5581 17.1591 24.6669 18.7864C26.1581 20.9737 26.9454 23.546 26.9454 26.2246C26.9454 33.3843 21.2747 39.2091 14.3045 39.2091H14.3064Z" fill="white"/>
<path d="M14.3045 25.042C13.6576 25.042 13.1309 25.5831 13.1309 26.2475C13.1309 26.912 13.6576 27.4531 14.3045 27.4531C14.9514 27.4531 15.4781 26.912 15.4781 26.2475C15.4781 25.5831 14.9514 25.042 14.3045 25.042Z" fill="white"/>
<path d="M31.0155 38.3527C31.4639 38.3527 31.7825 38.1856 31.9703 37.8514C32.1582 37.5172 32.2686 37.0716 32.3035 36.5145L32.4226 34.7987H34.3748V38.2831H35.3877V33.9055H31.5423L31.3951 36.3315C31.369 36.7234 31.3119 36.98 31.2237 37.1014C31.1356 37.2227 31.0059 37.2834 30.8325 37.2834C30.7735 37.2834 30.7231 37.2804 30.6815 37.2755C30.6398 37.2705 30.5943 37.2605 30.5449 37.2456V38.298C30.6021 38.3149 30.6679 38.3278 30.7434 38.3378C30.819 38.3467 30.91 38.3517 31.0155 38.3517V38.3527Z" fill="white"/>
<path d="M40.1381 37.4257H37.1246V36.4578H39.7953V35.6591H37.1246V34.7858H40.0926V33.9055H36.1582V38.2831H40.1381V37.4257Z" fill="white"/>
<path d="M42.3406 38.2831H43.369V34.7987H45.2379V33.9055H40.4717V34.7987H42.3406V38.2831Z" fill="white"/>
<path d="M32.4707 40.2078L30.1611 44.5943H31.2563L31.726 43.6513H34.2243L34.6911 44.5943H35.8628L33.532 40.2078H32.4707ZM32.1201 42.8596L32.8038 41.4859C32.8444 41.4123 32.8764 41.3536 32.9006 41.3089C32.9238 41.2641 32.949 41.2144 32.9752 41.1597H32.9839C33.01 41.2124 33.0352 41.2611 33.0584 41.3069C33.0817 41.3526 33.1127 41.4133 33.1514 41.4889L33.8302 42.8586H32.1182L32.1201 42.8596Z" fill="white"/>
<path d="M38.079 44.5943V41.1099H39.9479V40.2167H35.1816V41.1099H37.0515V44.5943H38.079Z" fill="white"/>
<path d="M43.0631 40.1232C42.2313 40.1232 41.535 40.3162 40.9753 40.7031C40.4156 41.09 40.1357 41.6471 40.1357 42.3762C40.1357 43.1053 40.4156 43.712 40.9753 44.1029C41.535 44.4938 42.2303 44.6888 43.0602 44.6888C43.89 44.6888 44.5921 44.4938 45.1605 44.1029C45.7289 43.712 46.0127 43.1371 46.0127 42.3762C46.0127 41.6152 45.7289 41.089 45.1625 40.7031C44.596 40.3162 43.8959 40.1232 43.064 40.1232H43.0631ZM44.9601 42.404C44.9601 42.8795 44.7809 43.2445 44.4236 43.4972C44.0653 43.7508 43.6141 43.8751 43.0699 43.8712C42.5208 43.8692 42.0715 43.7428 41.7209 43.4922C41.3704 43.2415 41.1951 42.8775 41.1951 42.4V42.3682C41.1951 41.9116 41.3694 41.5615 41.718 41.3188C42.0666 41.0761 42.5179 40.9568 43.0699 40.9607C43.6189 40.9627 44.0711 41.0841 44.4265 41.3238C44.7829 41.5635 44.9601 41.9126 44.9601 42.3712V42.403V42.404Z" fill="white"/>
<path d="M50.2286 44.5943L51.9755 41.9296C51.9978 41.8937 52.0162 41.8609 52.0307 41.8291C52.0452 41.7973 52.0627 41.7634 52.083 41.7256H52.1198C52.1198 41.7654 52.114 41.8002 52.1033 41.8291C52.0917 41.8579 52.0869 41.8927 52.0869 41.9325L52.0811 44.5943H53.0814V40.2167H51.8971L49.9943 43.1232C49.9594 43.1739 49.9352 43.2107 49.9207 43.2346C49.9062 43.2584 49.8936 43.2853 49.881 43.3151H49.8752C49.8606 43.2863 49.8471 43.2594 49.8335 43.2346C49.82 43.2107 49.7967 43.1729 49.7619 43.1232L47.8319 40.2167H46.6699V44.5943H47.5995L47.5908 41.8729C47.5908 41.8291 47.586 41.7943 47.5753 41.7674C47.5647 41.7416 47.5598 41.7038 47.5598 41.656H47.5937C47.6179 41.7038 47.6363 41.7406 47.647 41.7664C47.6586 41.7913 47.678 41.8261 47.707 41.8699L49.5333 44.5943H50.2306H50.2286Z" fill="white"/>
<path d="M55.2268 42.7939H57.8849V44.5943H58.9007V40.2167H57.8849V41.8669H55.2268V40.2167H54.2148V44.5943H55.2268V42.7939Z" fill="white"/>
<path d="M60.4236 44.1029C60.9833 44.4938 61.6785 44.6888 62.5084 44.6888C63.3383 44.6888 64.0404 44.4938 64.6088 44.1029C65.1772 43.712 65.4609 43.1371 65.4609 42.3762C65.4609 41.6152 65.1772 41.089 64.6107 40.7031C64.0442 40.3162 63.3441 40.1232 62.5123 40.1232C61.6805 40.1232 60.9842 40.3162 60.4245 40.7031C59.8648 41.09 59.585 41.6471 59.585 42.3762C59.585 43.1053 59.8648 43.712 60.4245 44.1029H60.4236ZM60.6424 42.3702C60.6424 41.9136 60.8167 41.5635 61.1653 41.3208C61.5139 41.0781 61.9652 40.9587 62.5171 40.9627C63.0662 40.9647 63.5184 41.0861 63.8738 41.3258C64.2301 41.5655 64.4074 41.9146 64.4074 42.3732V42.405C64.4074 42.8805 64.2282 43.2455 63.8709 43.4981C63.5126 43.7518 63.0613 43.8761 62.5171 43.8721C61.9681 43.8702 61.5188 43.7438 61.1682 43.4932C60.8177 43.2425 60.6424 42.8785 60.6424 42.401V42.3692V42.3702Z" fill="white"/>
<path d="M67.6267 39.4807C67.8445 39.607 68.0982 39.6706 68.3849 39.6706C68.6715 39.6706 68.9242 39.608 69.1402 39.4817C69.3561 39.3563 69.5217 39.1454 69.636 38.85L69.0124 38.5546C68.9475 38.7177 68.8594 38.8381 68.749 38.9147C68.6386 38.9913 68.5175 39.0291 68.3849 39.0291C68.2522 39.0291 68.1331 38.9893 68.0208 38.9107C67.9084 38.8321 67.8232 38.7138 67.7642 38.5536L67.1309 38.849C67.2432 39.1425 67.4078 39.3523 67.6267 39.4787V39.4807Z" fill="white"/>
<path d="M69.4445 41.8858C69.5055 41.8271 69.5481 41.7754 69.5733 41.7316C69.5975 41.6878 69.6178 41.6481 69.6343 41.6123H69.6527C69.6566 41.6481 69.6575 41.6888 69.6556 41.7346C69.6537 41.7803 69.6527 41.8311 69.6527 41.8858V44.5943H70.6559V40.2167H69.5055L67.3277 42.9004C67.2725 42.959 67.2337 43.0048 67.2115 43.0386C67.1892 43.0724 67.1679 43.1102 67.1476 43.152H67.1321V40.2167H66.123V44.5943H67.2793L69.4455 41.8858H69.4445Z" fill="white"/>
<path d="M30.8955 50.9055H31.9055V47.4241H34.3283V50.9055H35.3412V46.5279H30.8955V50.9055Z" fill="white"/>
<path d="M39.3547 46.5279H36.6104V50.9055H37.6232V49.6612H39.3421C39.9337 49.6612 40.3666 49.5189 40.6406 49.2335C40.9147 48.949 41.0522 48.567 41.0522 48.0896C41.0522 47.5873 40.9127 47.2013 40.6348 46.9318C40.3569 46.6622 39.9299 46.5279 39.3547 46.5279ZM39.8321 48.6585C39.6916 48.7888 39.4641 48.8535 39.1503 48.8535H37.6242V47.3734H39.1503C39.4641 47.3754 39.6916 47.4371 39.8321 47.5584C39.9725 47.6798 40.0432 47.8608 40.0432 48.1025C40.0432 48.3442 39.9725 48.5292 39.8321 48.6585Z" fill="white"/>
<path d="M46.3353 47.0133C45.7688 46.6264 45.0687 46.4334 44.2369 46.4334C43.4051 46.4334 42.7088 46.6264 42.1491 47.0133C41.5894 47.4003 41.3096 47.9573 41.3096 48.6864C41.3096 49.4155 41.5894 50.0222 42.1491 50.4131C42.7088 50.804 43.4041 50.999 44.234 50.999C45.0639 50.999 45.7659 50.804 46.3344 50.4131C46.9018 50.0222 47.1865 49.4473 47.1865 48.6864C47.1865 47.9255 46.9028 47.3993 46.3363 47.0133H46.3353ZM46.1339 48.7152C46.1339 49.1907 45.9548 49.5557 45.5974 49.8084C45.2391 50.062 44.7879 50.1864 44.2437 50.1824C43.6956 50.1804 43.2453 50.0541 42.8948 49.8034C42.5442 49.5527 42.3689 49.1887 42.3689 48.7112V48.6794C42.3689 48.2229 42.5433 47.8727 42.8919 47.63C43.2405 47.3873 43.6917 47.268 44.2437 47.272C44.7927 47.2739 45.245 47.3953 45.6003 47.635C45.9567 47.8747 46.1339 48.2239 46.1339 48.6824V48.7142V48.7152Z" fill="white"/>
<path d="M51.1662 49.4344C51.1313 49.4851 51.1071 49.5219 51.0926 49.5458C51.078 49.5697 51.0654 49.5965 51.0529 49.6264H51.047C51.0325 49.5975 51.019 49.5707 51.0054 49.5458C50.9918 49.5219 50.9686 49.4841 50.9337 49.4344L49.0038 46.5279H47.8418V50.9055H48.7714L48.7627 48.1841C48.7627 48.1403 48.7579 48.1055 48.7472 48.0786C48.7366 48.0528 48.7317 48.015 48.7317 47.9672H48.7656C48.7898 48.015 48.8082 48.0518 48.8189 48.0776C48.8305 48.1025 48.8499 48.1373 48.8789 48.1811L50.7052 50.9055H51.4024L53.1493 48.2408C53.1716 48.205 53.19 48.1721 53.2045 48.1403C53.2191 48.1085 53.2365 48.0747 53.2568 48.0369H53.2936C53.2936 48.0767 53.2878 48.1115 53.2772 48.1403C53.2655 48.1692 53.2607 48.204 53.2607 48.2438L53.2549 50.9055H54.2552V46.5279H53.0709L51.1681 49.4344H51.1662Z" fill="white"/>
<path d="M60.8858 46.5249H59.8516V50.9025H60.8858V46.5249Z" fill="white"/>
<path d="M57.7538 47.823H56.2209V46.5279H55.2119V50.9055H57.7693C58.3203 50.9055 58.7261 50.7732 58.9885 50.5096C59.2509 50.246 59.3816 49.8661 59.3816 49.3717C59.3816 48.8774 59.2519 48.5272 58.9933 48.2457C58.7348 47.9643 58.3213 47.823 57.7548 47.823H57.7538ZM58.1867 49.8979C58.0637 50.0083 57.8662 50.063 57.595 50.063H56.2219V48.6715H57.5989C57.8681 48.6715 58.0647 48.7341 58.1877 48.8605C58.3106 48.9858 58.3726 49.1569 58.3726 49.3727C58.3726 49.6134 58.3106 49.7895 58.1877 49.8989L58.1867 49.8979Z" fill="white"/>
<path d="M67.4356 50.0093H65.802V46.5279H64.7862V50.0093H63.1497V46.5279H62.1406V50.9055H68.4485V46.5279H67.4356V50.0093Z" fill="white"/>
<path d="M70.0924 48.9539C70.0663 49.3458 70.0091 49.6025 69.921 49.7238C69.8329 49.8452 69.7031 49.9058 69.5298 49.9058C69.4707 49.9058 69.4204 49.9029 69.3787 49.8979C69.3371 49.8929 69.2916 49.883 69.2422 49.8681V50.9204C69.2993 50.9373 69.3652 50.9503 69.4407 50.9592C69.5162 50.9682 69.6073 50.9731 69.7128 50.9731C70.1612 50.9731 70.4797 50.806 70.6676 50.4718C70.8555 50.1376 70.9659 49.692 71.0007 49.135L71.1198 47.4192H73.072V50.9035H74.0849V46.5259H70.2396L70.0924 48.952V48.9539Z" fill="white"/>
<path d="M76.3238 49.0793H78.9946V48.2816H76.3238V47.4082H79.2918V46.5279H75.3574V50.9055H79.3373V50.0471H76.3238V49.0793Z" fill="white"/>
<path d="M83.838 48.1781H81.1789V46.5279H80.167V50.9055H81.1789V49.1051H83.838V50.9055H84.8529V46.5279H83.838V48.1781Z" fill="white"/>
<path d="M89.5958 48.1781H86.9367V46.5279H85.9248V50.9055H86.9367V49.1051H89.5958V50.9055H90.6107V46.5279H89.5958V48.1781Z" fill="white"/>
<path d="M96.3197 47.0133C95.7532 46.6264 95.0531 46.4334 94.2213 46.4334C93.3895 46.4334 92.6932 46.6264 92.1335 47.0133C91.5738 47.4003 91.2939 47.9573 91.2939 48.6864C91.2939 49.4155 91.5738 50.0222 92.1335 50.4131C92.6932 50.804 93.3885 50.999 94.2184 50.999C95.0482 50.999 95.7503 50.804 96.3187 50.4131C96.8862 50.0222 97.1709 49.4473 97.1709 48.6864C97.1709 47.9255 96.8871 47.3993 96.3207 47.0133H96.3197ZM96.1183 48.7152C96.1183 49.1907 95.9391 49.5557 95.5818 49.8084C95.2235 50.062 94.7723 50.1864 94.2281 50.1824C93.68 50.1804 93.2297 50.0541 92.8791 49.8034C92.5286 49.5527 92.3533 49.1887 92.3533 48.7112V48.6794C92.3533 48.2229 92.5276 47.8727 92.8762 47.63C93.2248 47.3873 93.6761 47.268 94.2281 47.272C94.7771 47.2739 95.2293 47.3953 95.5847 47.635C95.9411 47.8747 96.1183 48.2239 96.1183 48.6824V48.7142V48.7152Z" fill="white"/>
<path d="M99.0053 47.6748C99.3326 47.4003 99.7916 47.263 100.383 47.263C100.881 47.263 101.249 47.3525 101.487 47.5316C101.725 47.7106 101.902 47.9135 102.013 48.1393L102.031 48.2338H103.053L103.038 48.1174C102.874 47.5226 102.594 47.0929 102.196 46.8293C101.798 46.5657 101.188 46.4334 100.364 46.4334C99.5398 46.4334 98.8068 46.6244 98.2606 47.0054C97.7155 47.3863 97.4424 47.9533 97.4424 48.7053V48.7272C97.4424 49.4682 97.7145 50.0332 98.2577 50.4191C98.801 50.806 99.504 50.999 100.367 50.999C101.23 50.999 101.865 50.8647 102.304 50.5952C102.742 50.3256 102.989 49.9019 103.044 49.324L103.053 49.2106H102.037L102.025 49.314C101.984 49.5338 101.84 49.7328 101.592 49.9108C101.344 50.0889 100.942 50.1784 100.385 50.1784C99.8284 50.1784 99.352 50.067 99.016 49.8452C98.6809 49.6234 98.5124 49.2524 98.5124 48.7331V48.6923C98.5124 48.2885 98.6761 47.9483 99.0034 47.6738L99.0053 47.6748Z" fill="white"/>
<path d="M103.125 47.4202H104.994V50.9055H106.021V47.4202H107.891V46.5279H103.125V47.4202Z" fill="white"/>
<path d="M111.849 46.5279L109.671 49.2116C109.616 49.2703 109.577 49.316 109.555 49.3498C109.533 49.3837 109.512 49.4215 109.491 49.4632H109.476V46.5279H108.467V50.9055H109.623L111.789 48.197C111.85 48.1383 111.893 48.0866 111.918 48.0428C111.942 47.9991 111.963 47.9593 111.979 47.9235H111.997C112.001 47.9593 112.002 48.0001 112 48.0458C111.998 48.0916 111.997 48.1423 111.997 48.197V50.9055H113.001V46.5279H111.85H111.849Z" fill="white"/>
</g>
<defs>
<clipPath id="clip0_146_7153">
<rect width="113" height="51" fill="white"/>
</clipPath>
</defs>
</svg>
