<svg width="146" height="66" viewBox="0 0 146 66" fill="none" xmlns="http://www.w3.org/2000/svg">
<g clip-path="url(#clip0_146_11889)">
<path d="M55.3394 11.3215C51.2257 11.3215 47.8789 14.7593 47.8789 18.9835C47.8789 23.2078 51.2257 26.6468 55.3394 26.6468C59.4531 26.6468 62.7986 23.209 62.7986 18.9835C62.7986 14.758 59.4518 11.3215 55.3394 11.3215ZM55.3394 23.8251C52.7408 23.8251 50.6259 21.6528 50.6259 18.9835C50.6259 16.3143 52.7408 14.142 55.3394 14.142C57.938 14.142 60.0529 16.3143 60.0529 18.9835C60.0529 21.6528 57.938 23.8251 55.3394 23.8251Z" fill="#004EA8"/>
<path d="M55.3393 17.293C54.4316 17.293 53.6934 18.0512 53.6934 18.9837C53.6934 19.9161 54.4316 20.6744 55.3393 20.6744C56.2471 20.6744 56.9853 19.9161 56.9853 18.9837C56.9853 18.0512 56.2471 17.293 55.3393 17.293Z" fill="#004EA8"/>
<path d="M55.3394 0.0141602C45.1568 0.0141602 36.8721 8.52409 36.8721 18.9835C36.8721 29.4428 45.1568 37.9528 55.3394 37.9528C65.5219 37.9528 73.8067 29.4428 73.8067 18.9835C73.8067 8.52409 65.5219 0.0141602 55.3394 0.0141602ZM55.3394 35.6869C46.3726 35.6869 39.0779 28.194 39.0779 18.9835C39.0779 9.77291 46.3726 2.28125 55.3381 2.28125C64.3037 2.28125 71.5996 9.77419 71.5996 18.9847C71.5996 28.1953 64.3049 35.6882 55.3381 35.6882L55.3394 35.6869Z" fill="#004EA8"/>
<path d="M55.3395 5.43091C48.0635 5.43091 42.1455 11.5111 42.1455 18.9835C42.1455 26.456 48.0648 32.5361 55.3395 32.5361C62.6142 32.5361 68.5334 26.456 68.5334 18.9835C68.5334 11.5111 62.6142 5.43091 55.3395 5.43091ZM55.3395 29.7964C49.5349 29.7964 44.8127 24.9458 44.8127 18.9835C44.8127 13.0212 49.5349 8.17063 55.3395 8.17063C61.144 8.17063 65.8662 13.0212 65.8662 18.9835C65.8662 24.9458 61.144 29.7964 55.3395 29.7964Z" fill="#004EA8"/>
<path d="M19.5567 12.514C19.5567 11.8825 19.0567 11.3689 18.4419 11.3689C17.8272 11.3689 17.3271 11.8825 17.3271 12.514C17.3271 13.1454 17.8272 13.659 18.4419 13.659C19.0567 13.659 19.5567 13.1454 19.5567 12.514Z" fill="#004EA8"/>
<path d="M23.1637 21.0634L20.615 20.0593L22.7921 18.3673C24.6052 16.9583 25.6451 14.8142 25.6451 12.4844C25.6451 8.41896 22.4255 5.11182 18.4677 5.11182C14.5099 5.11182 11.2903 8.41896 11.2903 12.4844C11.2903 14.8014 12.3215 16.9391 14.1184 18.3481L16.2893 20.049L13.7355 21.0417C8.61682 23.0321 5.17773 28.1465 5.17773 33.7694C5.17773 41.2713 11.1194 47.3745 18.4228 47.3745C25.7262 47.3745 31.6679 41.2713 31.6679 33.7694C31.6679 28.1734 28.25 23.0667 23.1637 21.0622V21.0634ZM14.2954 12.5138C14.2954 10.1647 16.1559 8.25373 18.4428 8.25373C20.7297 8.25373 22.5901 10.1647 22.5901 12.5138C22.5901 14.8629 20.7297 16.7739 18.4428 16.7739C16.1559 16.7739 14.2954 14.8629 14.2954 12.5138ZM18.4203 44.3569C12.7529 44.3569 8.14173 39.6203 8.14173 33.7989C8.14173 27.9774 12.7529 23.2409 18.4203 23.2409C24.0877 23.2409 28.6989 27.9774 28.6989 33.7989C28.6989 39.6203 24.0877 44.3569 18.4203 44.3569Z" fill="#004EA8"/>
<path d="M18.4201 26.3547C14.4236 26.3547 11.1729 29.6939 11.1729 33.799C11.1729 37.9041 14.4236 41.2433 18.4201 41.2433C22.4166 41.2433 25.6674 37.9041 25.6674 33.799C25.6674 29.6939 22.4166 26.3547 18.4201 26.3547ZM18.4201 38.4651C15.915 38.4651 13.8762 36.3709 13.8762 33.7977C13.8762 31.2245 15.915 29.1303 18.4201 29.1303C20.9252 29.1303 22.964 31.2245 22.964 33.7977C22.964 36.3709 20.9252 38.4651 18.4201 38.4651Z" fill="#004EA8"/>
<path d="M29.2571 18.5761C30.2161 16.7483 30.7298 14.6874 30.7298 12.5945C30.7298 5.6498 25.2295 0 18.4698 0C11.7101 0 6.20856 5.6498 6.20856 12.5945C6.20856 14.6669 6.71357 16.7112 7.65502 18.5261C2.88669 22.0587 0 27.761 0 33.8809C0 44.3146 8.26477 52.8041 18.4224 52.8041C28.5801 52.8041 36.8448 44.3146 36.8448 33.8809C36.8448 27.7969 33.9843 22.1138 29.2571 18.5761ZM18.4224 50.4896C9.44688 50.4896 2.14475 42.989 2.14475 33.7694C2.14475 30.3073 3.166 26.9848 5.09877 24.1618C6.539 22.0587 8.40069 20.3462 10.5604 19.1243C9.07654 17.2722 8.25604 14.9487 8.25604 12.4831C8.25604 6.70009 12.8361 1.99555 18.4661 1.99555C24.096 1.99555 28.6761 6.70009 28.6761 12.4831C28.6761 14.9679 27.8456 17.3029 26.3443 19.1601C28.4878 20.3859 30.3358 22.0958 31.7635 24.1913C33.6838 27.0079 34.6976 30.3201 34.6976 33.7694C34.6976 42.989 27.3955 50.4896 18.4199 50.4896H18.4224Z" fill="#004EA8"/>
<path d="M18.4195 32.2466C17.5865 32.2466 16.9082 32.9434 16.9082 33.799C16.9082 34.6546 17.5865 35.3513 18.4195 35.3513C19.2525 35.3513 19.9308 34.6546 19.9308 33.799C19.9308 32.9434 19.2525 32.2466 18.4195 32.2466Z" fill="#004EA8"/>
<path d="M39.939 49.3868C40.5164 49.3868 40.9266 49.1716 41.1685 48.7413C41.4104 48.3109 41.5526 47.7371 41.5975 47.0198L41.7508 44.8104H44.2647V49.2972H45.569V43.6602H40.6174L40.4278 46.7841C40.3942 47.2888 40.3206 47.6192 40.2071 47.7755C40.0936 47.9318 39.9266 48.0099 39.7034 48.0099C39.6273 48.0099 39.5624 48.0061 39.5088 47.9997C39.4552 47.9933 39.3966 47.9804 39.333 47.9612V49.3164C39.4066 49.3381 39.4914 49.3548 39.5886 49.3676C39.6859 49.3791 39.8031 49.3855 39.939 49.3855V49.3868Z" fill="#004EA8"/>
<path d="M51.6865 48.1931H47.806V46.9468H51.2451V45.9183H47.806V44.7937H51.6279V43.6602H46.5615V49.2972H51.6865V48.1931Z" fill="#004EA8"/>
<path d="M54.5228 49.2972H55.8471V44.8104H58.2537V43.6602H52.1162V44.8104H54.5228V49.2972Z" fill="#004EA8"/>
<path d="M41.8128 51.7756L38.8389 57.4242H40.2492L40.8539 56.2099H44.0711L44.6721 57.4242H46.1809L43.1795 51.7756H41.8128ZM41.3614 55.1904L42.2418 53.4215C42.2942 53.3267 42.3353 53.2512 42.3665 53.1935C42.3964 53.1359 42.4288 53.0718 42.4625 53.0014H42.4737C42.5074 53.0693 42.5398 53.132 42.5697 53.191C42.5997 53.2499 42.6396 53.328 42.6894 53.4254L43.5636 55.1891H41.3589L41.3614 55.1904Z" fill="#004EA8"/>
<path d="M49.0356 57.4243V52.9375H51.4422V51.7874H45.3047V52.9375H47.7125V57.4243H49.0356Z" fill="#004EA8"/>
<path d="M55.4531 51.6667C54.382 51.6667 53.4854 51.9152 52.7647 52.4135C52.044 52.9117 51.6836 53.629 51.6836 54.5679C51.6836 55.5067 52.044 56.288 52.7647 56.7914C53.4854 57.2948 54.3807 57.5458 55.4494 57.5458C56.518 57.5458 57.422 57.2948 58.154 56.7914C58.886 56.288 59.2513 55.5477 59.2513 54.5679C59.2513 53.588 58.886 52.9104 58.1565 52.4135C57.427 51.9152 56.5255 51.6667 55.4544 51.6667H55.4531ZM57.8959 54.6037C57.8959 55.216 57.6652 55.686 57.2051 56.0114C56.7437 56.338 56.1626 56.4981 55.4618 56.493C54.7548 56.4904 54.1762 56.3277 53.7248 56.005C53.2735 55.6822 53.0478 55.2134 53.0478 54.5986V54.5576C53.0478 53.9697 53.2722 53.5188 53.7211 53.2063C54.17 52.8938 54.7511 52.7401 55.4618 52.7452C56.1689 52.7478 56.7512 52.904 57.2088 53.2127C57.6677 53.5214 57.8959 53.971 57.8959 54.5615V54.6024V54.6037Z" fill="#004EA8"/>
<path d="M64.6792 57.4243L66.9287 53.993C66.9574 53.9469 66.9811 53.9046 66.9998 53.8636C67.0185 53.8226 67.0409 53.7791 67.0671 53.7304H67.1145C67.1145 53.7816 67.107 53.8265 67.0933 53.8636C67.0783 53.9007 67.0721 53.9456 67.0721 53.9968L67.0646 57.4243H68.3527V51.7874H66.8277L64.3775 55.53C64.3326 55.5953 64.3014 55.6427 64.2827 55.6734C64.264 55.7042 64.2478 55.7388 64.2316 55.7772H64.2241C64.2054 55.74 64.1879 55.7055 64.1705 55.6734C64.153 55.6427 64.1231 55.594 64.0782 55.53L61.593 51.7874H60.0967V57.4243H61.2937L61.2825 53.92C61.2825 53.8636 61.2763 53.8188 61.2626 53.7842C61.2489 53.7509 61.2426 53.7022 61.2426 53.6407H61.2863C61.3174 53.7022 61.3411 53.7496 61.3548 53.7829C61.3698 53.8149 61.3948 53.8598 61.4322 53.9161L63.7839 57.4243H64.6817H64.6792Z" fill="#004EA8"/>
<path d="M71.1165 55.106H74.5394V57.4243H75.8475V51.7874H74.5394V53.9123H71.1165V51.7874H69.8135V57.4243H71.1165V55.106Z" fill="#004EA8"/>
<path d="M77.8074 56.7914C78.5281 57.2948 79.4234 57.5458 80.4921 57.5458C81.5607 57.5458 82.4647 57.2948 83.1967 56.7914C83.9287 56.288 84.294 55.5477 84.294 54.5679C84.294 53.588 83.9287 52.9104 83.1992 52.4135C82.4697 51.9152 81.5682 51.6667 80.4971 51.6667C79.4259 51.6667 78.5294 51.9152 77.8086 52.4135C77.0879 52.9117 76.7275 53.629 76.7275 54.5679C76.7275 55.5067 77.0879 56.288 77.8086 56.7914H77.8074ZM78.0892 54.5602C78.0892 53.9723 78.3137 53.5214 78.7626 53.2089C79.2115 52.8964 79.7925 52.7427 80.5033 52.7478C81.2103 52.7503 81.7926 52.9066 82.2503 53.2153C82.7091 53.524 82.9373 53.9735 82.9373 54.564V54.605C82.9373 55.2172 82.7067 55.6873 82.2465 56.0127C81.7852 56.3393 81.2041 56.4994 80.5033 56.4942C79.7963 56.4917 79.2177 56.329 78.7663 56.0062C78.3149 55.6835 78.0892 55.2147 78.0892 54.5999V54.5589V54.5602Z" fill="#004EA8"/>
<path d="M87.0837 50.8395C87.3643 51.0022 87.691 51.0841 88.0601 51.0841C88.4292 51.0841 88.7547 51.0034 89.0327 50.8408C89.3108 50.6794 89.524 50.4079 89.6712 50.0274L88.8681 49.647C88.7846 49.8571 88.6711 50.0121 88.529 50.1107C88.3868 50.2093 88.2309 50.258 88.0601 50.258C87.8893 50.258 87.7359 50.2068 87.5913 50.1056C87.4466 50.0044 87.3369 49.852 87.2608 49.6458L86.4453 50.0262C86.59 50.404 86.8019 50.6743 87.0837 50.8369V50.8395Z" fill="#004EA8"/>
<path d="M89.4235 53.9366C89.5021 53.861 89.5569 53.7944 89.5894 53.7381C89.6205 53.6817 89.6467 53.6305 89.6679 53.5844H89.6916C89.6966 53.6305 89.6978 53.683 89.6953 53.7419C89.6929 53.8008 89.6916 53.8662 89.6916 53.9366V57.4243H90.9834V51.7874H89.5021L86.6977 55.2431C86.6266 55.3186 86.5767 55.3776 86.5481 55.4211C86.5194 55.4647 86.4919 55.5133 86.4658 55.5671H86.4458V51.7874H85.1465V57.4243H86.6353L89.4248 53.9366H89.4235Z" fill="#004EA8"/>
<path d="M39.7842 65.5511H41.0847V61.0681H44.2046V65.5511H45.5089V59.9141H39.7842V65.5511Z" fill="#004EA8"/>
<path d="M50.6774 59.9141H47.1436V65.5511H48.4479V63.9487H50.6612C51.4231 63.9487 51.9805 63.7656 52.3334 63.398C52.6862 63.0316 52.8633 62.5398 52.8633 61.925C52.8633 61.2782 52.6837 60.7812 52.3259 60.4341C51.968 60.087 51.4181 59.9141 50.6774 59.9141ZM51.2922 62.6576C51.1113 62.8254 50.8183 62.9087 50.4143 62.9087H48.4491V61.0028H50.4143C50.8183 61.0053 51.1113 61.0848 51.2922 61.241C51.473 61.3973 51.564 61.6304 51.564 61.9416C51.564 62.2529 51.473 62.4911 51.2922 62.6576Z" fill="#004EA8"/>
<path d="M59.667 60.539C58.9375 60.0407 58.036 59.7922 56.9648 59.7922C55.8937 59.7922 54.9972 60.0407 54.2764 60.539C53.5557 61.0372 53.1953 61.7545 53.1953 62.6933C53.1953 63.6322 53.5557 64.4135 54.2764 64.9169C54.9972 65.4203 55.8925 65.6713 56.9611 65.6713C58.0297 65.6713 58.9338 65.4203 59.6657 64.9169C60.3964 64.4135 60.763 63.6732 60.763 62.6933C60.763 61.7135 60.3977 61.0359 59.6682 60.539H59.667ZM59.4076 62.7305C59.4076 63.3427 59.1769 63.8128 58.7168 64.1381C58.2554 64.4648 57.6743 64.6249 56.9736 64.6197C56.2678 64.6172 55.688 64.4545 55.2366 64.1317C54.7852 63.809 54.5595 63.3402 54.5595 62.7254V62.6844C54.5595 62.0965 54.7839 61.6456 55.2328 61.3331C55.6817 61.0206 56.2628 60.8669 56.9736 60.872C57.6806 60.8745 58.2629 61.0308 58.7205 61.3395C59.1794 61.6482 59.4076 62.0978 59.4076 62.6882V62.7292V62.7305Z" fill="#004EA8"/>
<path d="M65.8872 63.6567C65.8423 63.722 65.8112 63.7694 65.7925 63.8001C65.7737 63.8309 65.7575 63.8655 65.7413 63.9039H65.7338C65.7151 63.8668 65.6977 63.8322 65.6802 63.8001C65.6628 63.7694 65.6328 63.7207 65.5879 63.6567L63.1028 59.9141H61.6064V65.5511H62.8035L62.7923 62.0467C62.7923 61.9903 62.7861 61.9455 62.7723 61.9109C62.7586 61.8776 62.7524 61.8289 62.7524 61.7674H62.796C62.8272 61.8289 62.8509 61.8763 62.8646 61.9096C62.8796 61.9416 62.9045 61.9865 62.9419 62.0428L65.2937 65.5511H66.1915L68.441 62.1197C68.4696 62.0736 68.4933 62.0313 68.512 61.9903C68.5307 61.9493 68.5532 61.9058 68.5794 61.8571H68.6268C68.6268 61.9083 68.6193 61.9532 68.6056 61.9903C68.5906 62.0275 68.5844 62.0723 68.5844 62.1235L68.5769 65.5511H69.865V59.9141H68.34L65.8897 63.6567H65.8872Z" fill="#004EA8"/>
<path d="M78.403 59.9102H77.0713V65.5472H78.403V59.9102Z" fill="#004EA8"/>
<path d="M74.3689 61.5817H72.395V59.9141H71.0957V65.5511H74.3889C75.0984 65.5511 75.6209 65.3807 75.9588 65.0413C76.2967 64.7019 76.4651 64.2126 76.4651 63.576C76.4651 62.9394 76.298 62.4886 75.965 62.1261C75.6321 61.7636 75.0997 61.5817 74.3702 61.5817H74.3689ZM74.9263 64.2536C74.768 64.3957 74.5136 64.4662 74.1644 64.4662H72.3963V62.6743H74.1694C74.5161 62.6743 74.7692 62.755 74.9276 62.9176C75.0859 63.079 75.1657 63.2993 75.1657 63.5773C75.1657 63.8872 75.0859 64.114 74.9276 64.2548L74.9263 64.2536Z" fill="#004EA8"/>
<path d="M86.8379 64.397H84.7343V59.9141H83.4262V64.397H81.3189V59.9141H80.0195V65.5511H88.1422V59.9141H86.8379V64.397Z" fill="#004EA8"/>
<path d="M90.2579 63.0379C90.2242 63.5426 90.1507 63.873 90.0372 64.0293C89.9237 64.1856 89.7566 64.2637 89.5334 64.2637C89.4574 64.2637 89.3925 64.2598 89.3389 64.2534C89.2853 64.247 89.2267 64.2342 89.1631 64.215V65.5701C89.2367 65.5919 89.3214 65.6086 89.4187 65.6201C89.516 65.6316 89.6332 65.638 89.7691 65.638C90.3464 65.638 90.7567 65.4229 90.9986 64.9925C91.2405 64.5621 91.3827 63.9883 91.4275 63.271L91.5809 61.0616H94.0948V65.5484H95.3991V59.9114H90.4474L90.2579 63.0354V63.0379Z" fill="#004EA8"/>
<path d="M98.2825 63.1994H101.722V62.1722H98.2825V61.0476H102.104V59.9141H97.0381V65.5511H102.163V64.4457H98.2825V63.1994Z" fill="#004EA8"/>
<path d="M107.959 62.039H104.535V59.9141H103.231V65.5511H104.535V63.2327H107.959V65.5511H109.265V59.9141H107.959V62.039Z" fill="#004EA8"/>
<path d="M115.373 62.039H111.949V59.9141H110.646V65.5511H111.949V63.2327H115.373V65.5511H116.679V59.9141H115.373V62.039Z" fill="#004EA8"/>
<path d="M124.031 60.539C123.302 60.0407 122.4 59.7922 121.329 59.7922C120.258 59.7922 119.361 60.0407 118.641 60.539C117.92 61.0372 117.56 61.7545 117.56 62.6933C117.56 63.6322 117.92 64.4135 118.641 64.9169C119.361 65.4203 120.257 65.6713 121.325 65.6713C122.394 65.6713 123.298 65.4203 124.03 64.9169C124.761 64.4135 125.127 63.6732 125.127 62.6933C125.127 61.7135 124.762 61.0359 124.032 60.539H124.031ZM123.772 62.7305C123.772 63.3427 123.541 63.8128 123.081 64.1381C122.62 64.4648 122.039 64.6249 121.338 64.6197C120.632 64.6172 120.052 64.4545 119.601 64.1317C119.149 63.809 118.924 63.3402 118.924 62.7254V62.6844C118.924 62.0965 119.148 61.6456 119.597 61.3331C120.046 61.0206 120.627 60.8669 121.338 60.872C122.045 60.8745 122.627 61.0308 123.085 61.3395C123.544 61.6482 123.772 62.0978 123.772 62.6882V62.7292V62.7305Z" fill="#004EA8"/>
<path d="M127.489 61.3907C127.911 61.0372 128.502 60.8605 129.264 60.8605C129.904 60.8605 130.378 60.9757 130.685 61.2063C130.992 61.4368 131.219 61.6981 131.362 61.9889L131.386 62.1106H132.701L132.681 61.9607C132.471 61.1948 132.11 60.6414 131.598 60.302C131.085 59.9626 130.3 59.7922 129.239 59.7922C128.177 59.7922 127.234 60.0382 126.53 60.5287C125.828 61.0193 125.477 61.7494 125.477 62.7177V62.7459C125.477 63.7001 125.827 64.4276 126.526 64.9246C127.226 65.4228 128.131 65.6713 129.242 65.6713C130.353 65.6713 131.171 65.4984 131.736 65.1513C132.301 64.8042 132.619 64.2585 132.69 63.5144L132.701 63.3684H131.393L131.377 63.5016C131.325 63.7846 131.139 64.0408 130.82 64.2701C130.501 64.4993 129.983 64.6146 129.266 64.6146C128.549 64.6146 127.936 64.4712 127.503 64.1855C127.071 63.8999 126.854 63.4221 126.854 62.7535V62.701C126.854 62.181 127.065 61.743 127.487 61.3894L127.489 61.3907Z" fill="#004EA8"/>
<path d="M132.794 61.063H135.201V65.5511H136.524V61.063H138.931V59.9141H132.794V61.063Z" fill="#004EA8"/>
<path d="M144.028 59.9141L141.224 63.3698C141.153 63.4454 141.103 63.5043 141.074 63.5478C141.046 63.5914 141.018 63.64 140.992 63.6938H140.972V59.9141H139.673V65.5511H141.162L143.951 62.0633C144.03 61.9877 144.085 61.9211 144.117 61.8648C144.148 61.8084 144.174 61.7572 144.196 61.7111H144.219C144.224 61.7572 144.225 61.8097 144.223 61.8686C144.22 61.9276 144.219 61.9929 144.219 62.0633V65.5511H145.511V59.9141H144.03H144.028Z" fill="#004EA8"/>
</g>
<defs>
<clipPath id="clip0_146_11889">
<rect width="145.51" height="65.6727" fill="white"/>
</clipPath>
</defs>
</svg>
